PathFileType	4	(X/Y/Z)	OpenSim_Sub09_CSBaseline_Magnet.trc
DataRate	CameraRate	NumFrames	NumMarkers	Units	OrigDataRate	OrigDataStartFrame	OrigNumFrames
100	100	16	8	m	100	731	5840
Frame#	Time	torso_imu_offset_imu	pelvis_imu_offset_imu	tibia_r_imu_offset_imu	femur_r_imu_offset_imu	tibia_l_imu_offset_imu	femur_l_imu_offset_imu	toes_r_imu_offset_imu	toes_l_imu_offset_imu
				X1	Y1	Z1	X2	Y2	Z2	X3	Y3	Z3	X4	Y4	Z4	X5	Y5	Z5	X6	Y6	Z6	X7	Y7	Z7	X8		Y8	Z8	

731	7.30000000	-0.92652941	-0.22538799	0.02243037	-0.70939179	0.23544920	-0.56745559	-0.32478820	-0.79909814	-0.22461112	-0.63805870	-0.54959744	0.03506000	-0.74593756	0.29916772	0.08060377	-0.75533346	-0.11171586	0.18254657	-0.71648699	-0.39931813	-0.35709218	-0.61805640	-0.17634418	-0.49837510
732	7.31000000	-0.92841234	-0.22236363	0.01699002	-0.71114221	0.24224282	-0.56574667	-0.30967694	-0.80079547	-0.22629631	-0.64432198	-0.54598453	0.01815946	-0.74160661	0.30168181	0.08148559	-0.74846749	-0.10299340	0.19232326	-0.72228116	-0.40876081	-0.33950151	-0.63256214	-0.16742523	-0.47310601
733	7.32000000	-0.92597861	-0.22697199	0.01359999	-0.70862160	0.24483819	-0.56204031	-0.28238294	-0.80802049	-0.23199997	-0.64857779	-0.54095834	0.01310681	-0.74108349	0.31085636	0.09165379	-0.75228634	-0.09587312	0.19439106	-0.72667855	-0.41314762	-0.31442485	-0.64407880	-0.16612635	-0.45957493
734	7.33000000	-0.92392957	-0.22859232	0.00446079	-0.71033945	0.24890125	-0.55267162	-0.26801241	-0.80893366	-0.23750917	-0.65644066	-0.54291506	-0.00567057	-0.73881999	0.32264014	0.09444007	-0.74614859	-0.09092723	0.20538858	-0.73950709	-0.42131028	-0.28063303	-0.65506762	-0.16469781	-0.44876120
735	7.34000000	-0.91998102	-0.22823394	0.00519939	-0.71250494	0.24841254	-0.55291142	-0.24636512	-0.81750945	-0.23693163	-0.66148573	-0.53518496	-0.01373052	-0.72744686	0.32992816	0.10179084	-0.73931156	-0.08882689	0.20449828	-0.74116884	-0.42837703	-0.25645162	-0.66687409	-0.16550213	-0.43805597
736	7.35000000	-0.91837122	-0.22809792	0.00250855	-0.71463928	0.24179512	-0.55415235	-0.23018453	-0.82520920	-0.24276528	-0.66755953	-0.52337824	-0.02293103	-0.72784191	0.33715655	0.10691809	-0.74572314	-0.08310389	0.21356193	-0.74381067	-0.44838213	-0.22593736	-0.67036796	-0.17301293	-0.42193377
737	7.36000000	-0.92495147	-0.23000082	-0.00268804	-0.71465839	0.24104185	-0.54930420	-0.21001432	-0.82673654	-0.24528148	-0.67280522	-0.52103408	-0.03964796	-0.72620784	0.35335551	0.11021956	-0.74342282	-0.07918927	0.21818103	-0.74612433	-0.45629258	-0.18312457	-0.67207351	-0.16785874	-0.41456846
738	7.37000000	-0.92197818	-0.22991918	-0.00440104	-0.71690040	0.23876540	-0.55063050	-0.19460914	-0.82123851	-0.25349958	-0.67391934	-0.51005573	-0.05026631	-0.71699382	0.35336650	0.11593641	-0.74102082	-0.08372324	0.21798670	-0.74870180	-0.47413952	-0.14169813	-0.67869654	-0.16846992	-0.40245385
739	7.38000000	-0.92143042	-0.23390654	-0.01253000	-0.71524237	0.24250998	-0.54949235	-0.17741364	-0.83242016	-0.25694738	-0.68817198	-0.50126212	-0.06094257	-0.71357149	0.35821300	0.12850171	-0.74697969	-0.07897737	0.21796259	-0.74138673	-0.49367189	-0.10607126	-0.68113894	-0.16928884	-0.40784760
740	7.39000000	-0.91694306	-0.23568120	-0.01439671	-0.71696839	0.24270888	-0.54934452	-0.16708715	-0.83114454	-0.25686744	-0.69082541	-0.48941993	-0.07561890	-0.71168530	0.35923209	0.13660802	-0.73602476	-0.07367093	0.21927088	-0.73435096	-0.51172685	-0.06649748	-0.68763638	-0.17061455	-0.39735569
741	7.40000000	-0.92189968	-0.24268777	-0.01206102	-0.71481784	0.24885351	-0.56273052	-0.14681390	-0.83256866	-0.25863334	-0.69845866	-0.48045500	-0.08556840	-0.70954064	0.36443297	0.14385919	-0.73279021	-0.07074384	0.22382662	-0.72334775	-0.53178169	-0.03181235	-0.68667688	-0.17507928	-0.39308335
742	7.41000000	-0.92020379	-0.23600499	-0.00936821	-0.71985027	0.24700671	-0.55147271	-0.13495498	-0.84003945	-0.25821753	-0.71256822	-0.46918967	-0.09889492	-0.70774624	0.36985501	0.15753006	-0.73590079	-0.07306341	0.22628324	-0.70430990	-0.55217675	0.00251608	-0.68597452	-0.17737474	-0.38612998
743	7.42000000	-0.91531414	-0.23722569	-0.01306658	-0.70870148	0.25607322	-0.55121883	-0.11720811	-0.83783289	-0.24419239	-0.71664165	-0.45342301	-0.11161248	-0.70304674	0.37077288	0.16115554	-0.73277763	-0.06676442	0.23147452	-0.68773514	-0.57110830	0.02713722	-0.68552963	-0.18176495	-0.39313975
744	7.43000000	-0.91323934	-0.24283015	-0.01208949	-0.70991319	0.25770139	-0.54623627	-0.10644788	-0.84855701	-0.23145933	-0.72180584	-0.43524948	-0.12065176	-0.70122015	0.36805946	0.16722466	-0.72817856	-0.05334158	0.24158345	-0.66258902	-0.58692895	0.03609636	-0.68931898	-0.18229850	-0.39349862
745	7.44000000	-0.92252138	-0.24086895	-0.00908349	-0.71147518	0.26415935	-0.54624493	-0.09775933	-0.85171820	-0.21992764	-0.73217864	-0.43063183	-0.12094186	-0.69252520	0.37309207	0.16989670	-0.72789516	-0.04530546	0.24008672	-0.64790501	-0.60535587	0.05452693	-0.69194820	-0.18449371	-0.39088035
746	7.45000000	-0.91577666	-0.24591550	-0.01271130	-0.71341604	0.27044455	-0.54898215	-0.09580838	-0.84732578	-0.21609064	-0.74187247	-0.41470619	-0.12972162	-0.69335938	0.38026816	0.17334253	-0.72484526	-0.04329996	0.24559862	-0.62987611	-0.61730130	0.05910326	-0.69465717	-0.18332635	-0.38665209
